<?xml version="1.0" standalone="no"?>
<!DOCTYPE svg PUBLIC "-//W3C//DTD SVG 20010904//EN"
 "http://www.w3.org/TR/2001/REC-SVG-20010904/DTD/svg10.dtd">
<svg version="1.0" xmlns="http://www.w3.org/2000/svg"
 width="7500.000000pt" height="5000.000000pt" viewBox="0 0 7500.000000 5000.000000"
 preserveAspectRatio="xMidYMid meet">

<g transform="translate(0.000000,5000.000000) scale(0.100000,-0.100000)"
fill="#000000" stroke="none">
<path d="M19362 33000 c-98 -26 -217 -90 -290 -156 -71 -64 -151 -179 -182
-261 -52 -139 -51 -68 -47 -2043 3 -2060 -4 -1872 78 -2030 74 -142 167 -233
314 -305 167 -82 -180 -76 3785 -73 3390 3 3537 4 3595 22 245 74 426 257 492
497 17 60 18 178 18 1934 l0 1870 -26 77 c-75 220 -227 377 -438 452 l-86 31
-3570 2 c-3484 2 -3572 2 -3643 -17z m7086 -1247 l2 -283 -3460 0 -3460 0 0
280 0 280 1798 3 c988 1 2544 2 3457 2 l1660 0 3 -282z m0 -1115 l-3 -283
-3457 -3 -3458 -2 0 285 0 285 3460 0 3460 0 -2 -282z m-3848 -1153 l0 -495
-1535 0 -1535 0 0 495 0 495 1535 0 1535 0 0 -495z m3650 0 l0 -495 -1532 2
-1533 3 -3 480 c-1 264 0 486 3 493 3 9 320 12 1535 12 l1530 0 0 -495z"/>
<path d="M23120 31750 l0 -210 1625 0 1625 0 0 210 0 210 -1625 0 -1625 0 0
-210z"/>
<path d="M24930 30640 l0 -210 720 0 720 0 0 210 0 210 -720 0 -720 0 0 -210z"/>
<path d="M19570 29485 l0 -445 1490 0 1490 0 0 445 0 445 -1490 0 -1490 0 0
-445z m1370 185 l0 -40 -595 0 -595 0 0 40 0 40 595 0 595 0 0 -40z m970 0 l0
-40 -425 0 -425 0 0 40 0 40 425 0 425 0 0 -40z m-1500 -220 l0 -40 -330 0
-330 0 0 40 0 40 330 0 330 0 0 -40z m950 0 l0 -40 -425 0 -425 0 0 40 0 40
425 0 425 0 0 -40z m930 0 l0 -40 -425 0 -425 0 0 40 0 40 425 0 425 0 0 -40z"/>
<path d="M23230 29485 l0 -445 1490 0 1490 0 0 445 0 445 -1490 0 -1490 0 0
-445z m1370 185 l0 -40 -600 0 -600 0 0 40 0 40 600 0 600 0 0 -40z m960 0 l0
-40 -425 0 -425 0 0 40 0 40 425 0 425 0 0 -40z m-1490 -220 l0 -40 -335 0
-335 0 0 40 0 40 335 0 335 0 0 -40z m950 0 l0 -40 -425 0 -425 0 0 40 0 40
425 0 425 0 0 -40z m930 0 l0 -40 -425 0 -425 0 0 40 0 40 425 0 425 0 0 -40z"/>
<path d="M13970 25484 c-468 -59 -848 -283 -1003 -591 -57 -111 -78 -200 -84
-345 -6 -146 5 -244 48 -408 57 -215 190 -512 320 -710 78 -119 230 -273 314
-317 55 -29 188 -63 200 -52 2 3 -4 23 -15 45 -28 56 -40 131 -40 250 0 119
-6 140 -60 202 -81 91 -107 279 -48 339 19 19 36 26 65 26 55 0 92 -23 152
-92 75 -86 118 -90 199 -16 51 45 78 111 103 243 31 165 71 239 154 288 82 48
126 55 415 69 293 15 353 25 475 80 145 65 185 136 133 234 -42 78 -287 344
-403 438 -189 152 -374 256 -526 293 -83 21 -315 34 -399 24z"/>
<path d="M25399 24535 c157 -34 275 -88 331 -150 23 -25 17 -23 -60 18 -124
66 -211 90 -313 85 -103 -5 -144 -23 -224 -104 -113 -114 -212 -358 -198 -487
14 -130 89 -330 160 -427 46 -62 96 -83 188 -78 l66 3 -30 -50 c-148 -250
-206 -456 -196 -700 10 -221 77 -403 189 -512 64 -63 127 -87 204 -79 71 7 98
0 138 -40 32 -32 86 -138 86 -168 0 -33 17 -5 34 56 14 48 15 69 6 125 -13 80
-9 114 32 291 l32 134 35 -6 c20 -3 106 -9 191 -12 138 -6 164 -4 239 15 46
11 125 41 175 66 50 25 86 42 81 37 -57 -51 -158 -130 -237 -185 -87 -61 -264
-170 -292 -180 -6 -2 -8 -7 -5 -11 12 -13 187 46 294 99 157 78 280 170 436
325 123 123 294 332 334 410 9 16 19 30 24 30 11 0 52 -62 91 -140 66 -131 65
-120 65 -420 0 -241 2 -279 17 -306 30 -55 44 -51 94 27 66 102 141 263 164
355 58 224 24 395 -108 557 -24 28 -74 103 -113 166 -256 419 -568 699 -836
751 -84 17 -214 8 -287 -18 -33 -12 -61 -21 -62 -19 -1 1 -9 29 -17 62 -68
266 -282 426 -639 479 -128 19 -176 19 -89 1z"/>
<path d="M46074 21650 c-822 -74 -1510 -650 -1715 -1435 -51 -195 -62 -292
-62 -510 0 -213 11 -310 58 -496 137 -539 516 -1005 1019 -1253 536 -264 1179
-269 1711 -12 561 270 940 755 1072 1373 26 121 28 142 28 388 0 245 -2 267
-28 387 -28 130 -95 348 -107 348 -8 0 -664 -292 -1050 -468 -414 -188 -591
-271 -793 -374 -122 -62 -186 -90 -183 -79 18 57 576 2092 576 2100 0 23 -368
46 -526 31z"/>
<path d="M57535 21615 c-150 -33 -285 -122 -368 -242 -21 -32 -25 -33 -89 -33
-323 0 -621 -104 -826 -285 -60 -54 -162 -185 -196 -254 -79 -156 -107 -290
-113 -544 -5 -202 11 -462 28 -451 5 3 9 17 9 32 0 15 11 70 25 122 71 262
171 459 288 565 34 31 69 61 79 66 13 7 37 -18 129 -133 132 -166 347 -390
460 -480 147 -117 297 -191 493 -243 49 -14 91 -26 93 -29 7 -7 -46 -311 -63
-358 -8 -23 -28 -66 -44 -95 l-29 -51 27 8 c182 54 465 243 616 411 89 99 151
272 176 489 18 153 8 511 -19 670 -68 399 -193 692 -342 799 -68 50 -204 65
-334 36z"/>
<path d="M15644 19646 c-28 -12 -68 -52 -76 -76 -2 -6 -182 -2 -453 10 -247
11 -484 20 -526 20 l-77 0 -5 -37 c-3 -21 -59 -368 -126 -772 -67 -404 -121
-746 -121 -759 l0 -24 108 7 c128 8 352 -8 433 -31 33 -9 71 -27 85 -41 24
-22 26 -29 22 -96 -4 -89 -38 -163 -108 -240 -133 -145 -427 -287 -597 -287
-59 0 -62 -1 -67 -27 -3 -16 -17 -98 -30 -183 -14 -85 -73 -447 -131 -804 -58
-357 -104 -650 -102 -652 2 -2 289 -15 638 -29 632 -26 1888 -79 2302 -97 123
-6 222 -6 227 -2 4 5 78 441 164 969 86 528 176 1075 200 1215 24 140 41 258
39 263 -2 4 -14 7 -27 7 -62 0 -253 119 -370 229 -140 133 -231 318 -211 430
14 80 24 99 66 115 88 36 327 2 634 -89 20 -6 23 11 86 397 36 222 65 404 64
406 -2 2 -85 7 -186 12 -703 34 -669 31 -669 55 0 23 -22 47 -55 59 -11 4
-144 14 -295 22 -151 7 -388 21 -526 29 -295 18 -271 18 -310 1z"/>
<path d="M57315 18340 c-49 -27 -145 -72 -212 -100 -332 -137 -552 -122 -628
42 l-23 50 -11 -34 c-23 -72 -108 -427 -270 -1128 -174 -753 -265 -1139 -327
-1385 -20 -77 -62 -266 -95 -420 -146 -685 -281 -1215 -367 -1438 l-28 -72
-252 -3 -252 -2 0 -85 0 -85 -289 0 -290 0 -3 48 -3 47 -287 -2 -288 -1 -95
291 c-52 160 -95 295 -95 299 0 4 424 9 943 10 l943 3 -277 1020 c-152 561
-319 1178 -372 1370 -52 193 -100 369 -106 393 l-12 42 -2164 0 c-1587 0
-2165 -3 -2165 -11 0 -11 732 -2725 751 -2786 l11 -33 780 -2 781 -3 98 -292
c53 -160 94 -294 91 -297 -3 -3 -108 -6 -233 -6 l-228 0 -3 -42 -3 -43 -2990
-5 c-2884 -5 -2991 -6 -3020 -23 -17 -11 -42 -35 -55 -55 -23 -32 -25 -45 -25
-141 0 -126 12 -162 68 -202 l40 -29 629 0 630 0 -6 -37 c-40 -246 -1136
-8034 -1133 -8050 l4 -23 -9316 0 -9316 0 -18 51 c-21 59 -82 129 -142 165
-61 36 -168 69 -327 103 -77 17 -159 40 -182 51 -47 23 -178 147 -383 363
l-142 149 -93 -39 c-91 -37 -95 -38 -218 -37 -100 0 -138 5 -190 22 -35 12
-66 20 -67 18 -2 -2 8 -23 21 -47 13 -24 32 -70 41 -102 21 -73 13 -113 -50
-236 -24 -47 -49 -109 -56 -136 -13 -57 -17 -231 -6 -288 l8 -37 -1028 2
-1027 3 -6 30 c-17 79 -76 146 -172 192 -76 37 -133 54 -298 88 -140 30 -179
44 -221 79 -47 40 -127 135 -202 241 -39 55 -74 104 -79 110 -4 5 -47 10 -94
11 -47 1 -109 8 -137 14 -77 18 -204 82 -272 138 l-60 49 -1 -67 c0 -86 -21
-139 -105 -272 -90 -142 -106 -175 -130 -266 -16 -59 -20 -110 -21 -214 l0
-138 -1802 0 -1801 0 -24 45 c-56 105 -144 154 -361 200 -343 72 -601 186
-794 350 l-68 57 -21 -20 c-31 -28 -39 -31 -265 -116 -357 -134 -501 -171
-674 -171 l-108 0 0 -60 c1 -78 23 -203 44 -243 9 -17 16 -33 16 -37 0 -3
-528 -5 -1174 -5 l-1173 0 -23 118 c-12 64 -32 153 -44 197 -25 92 -7 86 -176
61 -268 -40 -587 -45 -767 -13 l-72 13 -10 -50 c-15 -71 -28 -168 -36 -253
l-7 -73 -2435 -2 -2435 -3 -19 -24 c-29 -35 -26 -105 6 -136 l24 -25 30191 0
30191 0 24 25 c32 31 35 101 6 136 l-19 24 -3420 3 -3420 2 -6 28 c-8 41
-1136 8049 -1136 8067 0 13 86 15 814 15 l813 0 34 23 c56 37 79 96 79 202 0
113 -23 168 -85 202 l-40 22 -2602 3 c-2405 3 -2603 4 -2603 19 0 15 31 174
45 238 6 23 5 24 -42 16 -26 -4 -154 -10 -283 -14 -255 -7 -291 -15 -310 -66
-9 -24 -12 -25 -120 -25 -60 0 -110 3 -110 6 0 3 5 14 11 25 10 20 9 20 -20 5
-33 -17 -69 -20 -89 -8 -19 12 345 350 410 381 64 30 277 73 473 96 83 10 154
21 158 25 4 4 73 342 152 752 l144 746 95 1229 c53 676 96 1241 96 1256 0 15
-3 27 -7 26 -5 0 -48 -22 -98 -49z m2530 -5121 c5 -7 47 -222 125 -634 10 -55
37 -194 59 -310 22 -115 324 -1742 671 -3615 347 -1873 637 -3435 644 -3472
l13 -68 -5106 1 -5106 1 70 22 c39 13 99 35 135 50 98 41 162 54 310 66 369
29 529 81 581 187 26 54 22 110 -16 232 l-26 80 -57 -21 c-31 -11 -163 -69
-292 -128 -281 -129 -367 -162 -503 -196 -176 -43 -436 -43 -602 0 l-50 13 67
31 c100 45 173 97 271 191 48 46 86 86 84 88 -7 7 -77 -22 -293 -123 -333
-154 -467 -200 -652 -225 -111 -15 -330 -5 -437 19 l-80 18 -100 -44 c-156
-68 -273 -132 -295 -159 -22 -28 -15 -52 24 -85 20 -17 -39 -17 -1313 -18
-1266 0 -1333 1 -1326 18 3 9 296 1574 650 3477 l644 3460 151 565 c83 311
153 570 155 577 5 14 11591 17 11600 2z m-9535 -8069 l32 -30 -118 0 -119 1
85 28 c47 16 86 29 86 30 1 1 16 -12 34 -29z"/>
<path d="M31010 18110 l-2485 -5 -53 -22 c-161 -66 -265 -183 -307 -348 -17
-67 -20 -444 -8 -1021 l6 -322 38 13 c89 32 251 43 341 24 67 -14 116 -63 175
-174 81 -155 111 -285 77 -333 -21 -30 -51 -28 -169 13 -133 46 -210 47 -342
5 -51 -16 -100 -30 -108 -30 -13 0 -15 -121 -15 -995 0 -981 0 -997 21 -1058
56 -168 200 -294 374 -326 42 -8 1391 -11 4719 -11 5127 0 4733 -5 4858 62
123 65 210 180 243 320 21 91 22 3764 1 3844 -48 181 -208 329 -391 363 -61
11 -1774 12 -6975 1z m-318 -810 c55 -16 123 -96 148 -177 28 -90 27 -227 -1
-318 -26 -85 -102 -169 -161 -180 -91 -17 -169 29 -217 127 -76 156 -56 375
46 488 58 64 109 81 185 60z m1776 -11 c53 -26 104 -93 129 -169 24 -75 24
-235 0 -310 -58 -177 -207 -243 -318 -143 -79 71 -116 189 -106 336 9 141 66
249 151 288 54 24 90 24 144 -2z m686 -16 c88 -62 139 -226 118 -378 -27 -187
-130 -294 -259 -270 -28 5 -52 21 -89 59 -73 75 -89 127 -89 286 0 116 2 129
28 185 34 72 69 111 122 137 54 25 115 19 169 -19z m607 27 c186 -52 238 -460
78 -619 -117 -117 -272 -57 -329 128 -27 86 -27 226 0 313 23 76 76 143 134
169 47 21 67 23 117 9z m661 0 c55 -16 123 -96 148 -177 28 -90 27 -227 -1
-318 -16 -53 -31 -78 -72 -120 -56 -57 -97 -73 -161 -61 -202 38 -263 463 -89
629 56 53 104 66 175 47z m1048 -13 c90 -47 144 -168 144 -322 0 -55 -7 -112
-17 -146 -77 -260 -330 -263 -409 -6 -30 101 -23 257 16 342 33 72 68 111 121
136 53 25 93 24 145 -4z m-5292 -319 l-3 -333 -55 0 -55 0 -3 254 -2 253 -23
-6 c-69 -19 -64 -22 -71 38 -4 31 -7 59 -7 63 0 16 127 61 174 62 l47 1 -2
-332z m1209 312 c158 -96 178 -473 32 -605 -46 -41 -72 -49 -143 -43 -92 8
-149 69 -182 198 -22 85 -15 244 13 313 24 59 65 112 107 138 42 26 130 26
173 -1z m543 -310 l0 -330 -55 0 -55 0 0 255 0 254 -41 -14 c-23 -8 -43 -15
-44 -15 -3 0 -19 94 -20 114 0 16 128 64 173 65 l42 1 0 -330z m3000 -5 l0
-336 -57 3 -58 3 -3 253 -2 253 -23 -6 c-66 -19 -62 -23 -72 56 l-7 55 64 26
c34 14 84 27 111 27 l47 1 0 -335z m1199 321 c159 -83 191 -450 52 -599 -38
-42 -73 -57 -132 -57 -94 0 -157 55 -196 171 -28 83 -25 265 6 342 25 65 61
111 106 138 37 23 124 25 164 5z m551 -316 l0 -330 -55 0 -55 0 0 255 0 254
-41 -14 c-23 -8 -43 -15 -44 -15 -2 0 -6 25 -10 55 -3 30 -7 58 -8 61 -4 12
138 63 176 63 l37 1 0 -330z m-6472 -758 c133 -60 187 -349 100 -527 -24 -48
-73 -101 -110 -121 -35 -18 -111 -18 -147 0 -44 23 -97 89 -122 152 -19 49
-23 78 -23 174 0 134 22 205 82 272 69 76 132 91 220 50z m683 -14 c38 -29 74
-84 96 -149 28 -83 24 -255 -6 -333 -42 -106 -115 -166 -201 -166 -49 0 -84
17 -126 62 -141 149 -119 493 39 593 60 38 141 35 198 -7z m630 16 c42 -21 95
-88 119 -150 19 -48 24 -79 24 -164 1 -124 -18 -198 -67 -261 -48 -63 -79 -82
-141 -87 -71 -6 -130 26 -174 96 -67 103 -82 296 -33 424 51 133 168 194 272
142z m1440 0 c146 -73 191 -391 81 -565 -46 -72 -84 -94 -164 -94 -59 0 -70 3
-105 31 -22 18 -53 59 -73 99 -35 68 -35 68 -35 205 0 137 0 137 35 205 65
126 161 169 261 119z m1784 -19 c75 -58 123 -205 112 -344 -14 -182 -104 -301
-227 -301 -49 0 -84 17 -126 62 -141 149 -119 493 39 593 62 39 142 35 202
-10z m625 19 c105 -53 168 -231 142 -400 -14 -91 -38 -147 -83 -198 -107 -122
-268 -72 -336 104 -13 34 -17 76 -17 170 0 107 3 133 22 182 53 134 170 194
272 142z m661 0 c36 -18 88 -80 111 -131 10 -24 24 -80 30 -125 17 -132 -19
-276 -89 -350 -81 -85 -212 -74 -283 24 -87 120 -95 358 -16 493 58 99 157
134 247 89z m660 0 c85 -42 141 -169 141 -319 1 -108 -19 -183 -64 -251 -46
-68 -97 -96 -170 -91 -76 4 -121 40 -168 132 -35 68 -35 68 -35 204 0 129 2
139 29 199 31 68 89 128 133 138 16 3 33 7 38 9 16 4 68 -7 96 -21z m-4723
-321 l2 -333 -60 0 -60 0 0 256 c0 240 -1 256 -17 249 -10 -3 -30 -9 -44 -12
-25 -5 -26 -2 -37 53 -7 31 -9 60 -6 63 19 20 144 60 179 58 l40 -2 3 -332z
m452 2 l0 -335 -60 0 -60 0 0 256 0 255 -22 -7 c-53 -17 -61 -12 -73 48 l-12
57 71 30 c39 16 90 30 114 30 l42 1 0 -335z m1205 312 c143 -81 181 -397 68
-569 -73 -110 -225 -114 -302 -8 -51 70 -66 131 -66 260 0 129 15 190 65 259
57 79 156 103 235 58z m545 -317 l0 -330 -55 0 -55 0 0 256 0 256 -22 -6 c-70
-19 -65 -21 -73 30 -3 25 -9 52 -11 59 -7 18 112 64 169 65 l47 0 0 -330z
m-3992 -1067 l2 -333 -60 0 -60 0 0 255 0 254 -40 -14 c-32 -11 -42 -12 -45
-2 -8 25 -23 112 -21 115 16 15 159 61 186 59 l35 -2 3 -332z m569 300 c22
-17 53 -59 73 -98 35 -68 35 -68 35 -205 0 -137 0 -137 -35 -206 -48 -94 -101
-134 -176 -134 -67 0 -101 16 -147 71 -91 106 -109 328 -37 474 49 102 102
138 192 132 46 -3 65 -9 95 -34z m652 4 c47 -31 96 -122 112 -212 32 -169 -33
-370 -134 -416 -110 -49 -202 -6 -264 126 -26 56 -28 69 -28 185 0 140 14 198
66 270 59 81 166 101 248 47z m1069 19 c99 -52 160 -199 149 -361 -7 -102 -38
-186 -89 -241 -49 -53 -84 -68 -152 -62 -125 10 -206 144 -206 338 0 151 59
275 155 328 28 16 111 15 143 -2z m680 -13 c83 -62 126 -167 126 -313 0 -150
-45 -258 -133 -317 -52 -35 -135 -32 -189 7 -79 57 -122 165 -122 312 0 147
49 262 134 314 34 21 51 24 99 21 37 -2 67 -10 85 -24z m669 -9 c115 -91 153
-338 77 -504 -45 -98 -100 -140 -184 -140 -85 0 -138 41 -187 145 -26 56 -28
68 -28 195 0 119 3 141 23 184 53 115 111 158 204 153 46 -3 65 -9 95 -33z
m660 -1 c22 -17 53 -59 73 -98 35 -68 35 -68 35 -205 0 -137 0 -137 -35 -206
-48 -94 -101 -134 -176 -134 -67 0 -101 16 -148 72 -38 43 -69 128 -81 218 -9
70 12 187 45 255 49 102 102 138 192 132 46 -3 65 -9 95 -34z m453 -298 l0
-335 -60 0 -60 0 0 255 0 254 -40 -14 c-45 -16 -39 -23 -59 71 l-8 42 76 30
c42 17 93 31 114 31 l37 1 0 -335z m533 321 c163 -67 206 -437 71 -595 -47
-54 -81 -71 -144 -71 -86 0 -139 42 -186 145 -37 80 -46 233 -19 330 43 160
160 241 278 191z m664 -5 c49 -23 94 -81 120 -154 13 -38 18 -82 18 -167 0
-129 -16 -190 -66 -260 -72 -100 -213 -105 -292 -11 -67 80 -94 253 -63 394
39 172 157 255 283 198z m-4197 -321 l0 -330 -55 0 -55 0 0 256 0 256 -22 -6
c-69 -19 -64 -22 -76 40 -7 32 -11 58 -9 60 16 16 133 52 170 53 l47 1 0 -330z
m4750 0 l0 -330 -55 0 -55 0 0 256 0 256 -22 -6 c-70 -19 -65 -21 -73 30 -3
25 -9 52 -11 59 -7 17 112 63 169 64 l47 1 0 -330z"/>
<path d="M30590 17142 c-39 -39 -53 -100 -48 -203 4 -95 25 -143 71 -169 24
-13 30 -13 54 0 47 26 67 74 71 171 5 102 -15 177 -55 209 -35 27 -59 25 -93
-8z"/>
<path d="M32357 17159 c-9 -5 -27 -29 -39 -52 -19 -35 -23 -58 -23 -142 0 -85
4 -107 23 -143 42 -80 109 -82 149 -4 55 110 30 308 -44 341 -29 13 -43 13
-66 0z"/>
<path d="M33007 17149 c-33 -25 -57 -103 -57 -184 0 -159 84 -256 155 -179 33
36 48 93 47 184 0 86 -22 150 -60 180 -32 25 -53 25 -85 -1z"/>
<path d="M33660 17142 c-35 -36 -50 -87 -50 -177 0 -38 5 -88 11 -109 13 -48
59 -96 92 -96 32 0 71 40 85 88 15 49 15 174 1 226 -13 47 -59 96 -89 96 -12
0 -34 -13 -50 -28z"/>
<path d="M34331 17154 c-41 -29 -61 -89 -61 -187 0 -167 73 -255 150 -179 35
36 50 87 50 178 0 84 -22 157 -57 184 -31 24 -51 25 -82 4z"/>
<path d="M35346 17149 c-57 -45 -75 -234 -30 -324 39 -80 109 -85 148 -10 29
55 35 208 11 271 -17 46 -56 84 -85 84 -10 0 -29 -9 -44 -21z"/>
<path d="M31244 17143 c-94 -101 -55 -383 54 -383 61 0 105 85 105 205 0 161
-85 257 -159 178z"/>
<path d="M35992 17136 c-31 -35 -52 -105 -52 -171 0 -107 53 -205 110 -205 34
0 75 39 92 88 16 48 16 177 -1 225 -34 97 -96 124 -149 63z"/>
<path d="M30105 16090 c-78 -29 -108 -216 -55 -337 30 -69 90 -84 133 -34 74
89 53 340 -31 369 -15 5 -36 6 -47 2z"/>
<path d="M30731 16068 c-33 -35 -46 -87 -46 -183 1 -91 13 -132 53 -177 36
-41 106 -12 131 54 33 88 20 244 -26 298 -31 37 -82 41 -112 8z"/>
<path d="M31391 16071 c-46 -46 -65 -193 -37 -286 19 -62 50 -95 91 -95 62 0
98 74 98 200 0 87 -15 144 -50 182 -22 24 -78 23 -102 -1z"/>
<path d="M32865 16092 c-59 -12 -89 -94 -83 -221 7 -139 52 -201 127 -175 41
14 65 75 69 176 6 149 -38 236 -113 220z"/>
<path d="M34584 16073 c-65 -66 -70 -279 -7 -353 18 -22 33 -30 57 -30 64 0
101 73 101 200 0 89 -14 139 -48 178 -25 27 -78 30 -103 5z"/>
<path d="M35267 16088 c-39 -14 -68 -75 -74 -163 -10 -134 33 -235 101 -235
61 0 99 73 100 195 2 145 -51 228 -127 203z"/>
<path d="M35933 16092 c-48 -7 -83 -93 -83 -202 0 -119 41 -200 101 -200 63 0
100 73 100 199 1 142 -42 215 -118 203z"/>
<path d="M36595 16092 c-59 -12 -89 -94 -83 -221 7 -139 52 -201 127 -175 41
14 65 75 69 176 6 149 -38 236 -113 220z"/>
<path d="M33485 16067 c-60 -60 -72 -217 -23 -315 45 -91 112 -90 157 2 48 97
28 275 -36 326 -36 28 -60 25 -98 -13z"/>
<path d="M30593 15005 c-67 -47 -71 -295 -6 -367 25 -28 87 -24 111 7 49 62
57 239 14 321 -29 56 -74 71 -119 39z"/>
<path d="M31245 14997 c-69 -69 -74 -259 -9 -344 72 -95 164 -12 167 151 3
110 -26 185 -80 215 -32 17 -42 14 -78 -22z"/>
<path d="M32341 14996 c-66 -70 -66 -283 -1 -354 28 -30 80 -29 107 1 66 71
63 285 -4 359 -23 26 -75 23 -102 -6z"/>
<path d="M33012 15013 c-7 -3 -23 -24 -35 -46 -19 -36 -22 -58 -22 -147 0 -89
3 -111 22 -146 24 -44 38 -54 82 -54 55 0 93 76 93 189 1 92 -15 155 -47 187
-23 23 -61 30 -93 17z"/>
<path d="M33656 14995 c-29 -32 -46 -95 -46 -175 0 -126 38 -200 103 -200 40
0 63 22 83 77 16 47 18 182 2 235 -25 84 -94 115 -142 63z"/>
<path d="M34315 14996 c-32 -32 -45 -85 -45 -181 1 -131 34 -195 101 -195 47
0 72 29 89 101 26 107 -6 274 -55 293 -33 12 -66 6 -90 -18z"/>
<path d="M35352 15013 c-7 -3 -23 -24 -35 -46 -19 -36 -22 -58 -22 -147 0 -89
3 -111 22 -146 24 -44 38 -54 82 -54 56 0 90 72 91 194 0 91 -14 147 -46 181
-22 24 -60 31 -92 18z"/>
<path d="M36007 15010 c-64 -51 -85 -229 -37 -325 14 -28 37 -57 53 -65 24
-13 30 -13 55 0 15 8 38 37 52 65 20 41 25 65 25 130 0 94 -15 144 -57 185
-35 35 -56 37 -91 10z"/>
<path d="M43029 6747 c-121 -51 -189 -115 -243 -227 -29 -60 -31 -73 -31 -171
0 -101 1 -108 38 -181 131 -266 471 -325 678 -119 210 211 150 557 -118 684
-60 28 -79 32 -168 35 -86 2 -108 -1 -156 -21z"/>
</g>
</svg>
