<svg xmlns="http://www.w3.org/2000/svg" viewBox="0 0 661.49 206.69"><g id="Layer_2" data-name="Layer 2"><g id="Layer_1-2" data-name="Layer 1"><path d="M360.09,85.83a565.44,565.44,0,0,1,58.78-34.29c17.17-8.67,33.6-15.87,49-21.88,0,0,44.68-17.42,108.26-28.09a122.29,122.29,0,0,1,23-1.53c14.73.38,33.34.87,47.49,13.79a47.77,47.77,0,0,1,12.77,19.4c3.23,9.43,4.26,22.79-7.15,49-7,16.19-20.93,42.12-48.51,68.94a166.13,166.13,0,0,0,25-38.3c6.88-14.65,12.09-26.11,10.72-41.36-.46-5.2-1.57-17.57-10.72-27.57-7-7.61-15.86-10.87-27.57-13.28-30.58-6.28-57.2-2-65.88-.51-10.47,1.81-38.59,7.16-82.72,24.51a643.51,643.51,0,0,0-67.4,31.15Z" fill="#1146f4"/><path d="M407.57,85.32a313,313,0,0,1,50.56-24.51A319.26,319.26,0,0,1,510.72,46a323.53,323.53,0,0,1,50-5.62c-19.67,4.15-36.1,8.59-48.51,12.26C492.52,58.47,477.63,63,459.15,72a250.72,250.72,0,0,0-26,14.81Z" fill="#0e82fa"/><path d="M278.26,158.6c-14,8.57-32.95,19.31-52.49,26.88a320.21,320.21,0,0,1-52.48,15.21,328.06,328.06,0,0,1-50.52,6c19.63-4.3,36.54-8.86,48.93-12.62,19.7-6,34.54-10.58,53-19.82,11.1-5.56,23.57-11.75,29.6-15.74C262.77,159,269.74,158.15,278.26,158.6Z" fill="#0e82fa"/><path d="M186.64,157.49a362.05,362.05,0,0,1-37.45,11.91c-31.25,8.1-52.87,10.06-67.4,8.85-10.53-.87-19.36-1.29-28.94-5.44-11.93-5.17-17.64-11-18.89-12.43a43.22,43.22,0,0,1-8.51-14.81c-.85-2.53-3.71-11.81-.68-27.06C30.21,91,51,63,55.74,56.72A220.25,220.25,0,0,0,28.43,88.38c-7.69,10.85-17.57,25-24.26,46C2.38,139.94,0,146.48,0,155.79c0,8.64,1.43,15.31,2.13,17.1A46.32,46.32,0,0,0,21,195.11c6.73,4.11,13,5.56,19.41,6.63A178.6,178.6,0,0,0,89.7,203c24-3.28,54.24-9.93,94.47-25.28,18.26-7,33-13.6,43.15-18.38Z" fill="#1146f4"/><text transform="translate(64.72 143.05) scale(1.06 1)" font-size="55.7" fill="#fff" font-family="SansSerifBold, SansSerif">ALBEDO ENERGY</text><text transform="translate(287.16 183.5) scale(1.06 1)" font-size="31.51" fill="#fff" font-family="SansSerifBold, SansSerif">Consulting</text></g></g></svg>